<svg xmlns="http://www.w3.org/2000/svg" width="512" height="512" viewBox="0 0 512 512" role="img" aria-labelledby="title desc">
  <title id="title">Selected R Navy Gold</title>
  <desc id="desc">The selected R favicon in deep navy and warm gold.</desc>
  <defs>
    <linearGradient id="navy" x1="64" y1="44" x2="450" y2="466" gradientUnits="userSpaceOnUse">
      <stop stop-color="#0C2137"/>
      <stop offset=".62" stop-color="#081A2D"/>
      <stop offset="1" stop-color="#061527"/>
    </linearGradient>
    <linearGradient id="gold" x1="132" y1="106" x2="398" y2="388" gradientUnits="userSpaceOnUse">
      <stop stop-color="#FFF4D6"/>
      <stop offset=".56" stop-color="#E5D6B5"/>
      <stop offset="1" stop-color="#C9A15E"/>
    </linearGradient>
  </defs>
  <rect x="24" y="24" width="464" height="464" rx="112" fill="url(#navy)"/>
  <rect x="48" y="48" width="416" height="416" rx="90" fill="none" stroke="#E5D6B5" stroke-opacity=".46" stroke-width="8"/>
  <g transform="translate(8 0)">
    <path d="M142 382V129h139c67 0 111 38 111 94 0 43-25 76-66 90l74 69h-85l-64-67h-51v67h-58Z" fill="url(#gold)"/>
    <path d="M200 260h77c35 0 55-15 55-39s-20-39-55-39h-77v78Z" fill="#081A2D"/>
    <rect x="142" y="286" width="58" height="96" fill="#B99A63"/>
    <circle cx="400" cy="366" r="15" fill="#D6A04F"/>
  </g>
</svg>
